<svg width="106" height="60" fill="none" xmlns="http://www.w3.org/2000/svg"><path fill="#E5E5E5" d="M0 0h106v60H0z"/><g clip-path="url(#a)"><path fill="#fff" d="M-847-2509H753V422H-847z"/><rect x="-31.5" y="-15.5" width="169" height="91" rx="3.5" stroke="#2196F3"/><path d="M24.146 21.103h-.003c-2.398 0-4.342 1.727-4.342 3.858v.003c0 2.131 1.944 3.859 4.342 3.859h.003c2.398 0 4.342-1.728 4.342-3.859v-.002c0-2.132-1.944-3.86-4.342-3.86ZM56.195 19.87c-.007-2.96-1.333-5.798-3.688-7.891C50.153 9.886 46.96 8.707 43.63 8.7c-3.332.005-6.526 1.184-8.882 3.277-2.356 2.094-3.682 4.931-3.69 7.892v16.323s25.134-2.488 25.137-16.32v-.003ZM11 41.55c.006 2.06.93 4.033 2.568 5.49 1.638 1.456 3.859 2.277 6.176 2.283 2.317-.006 4.537-.827 6.176-2.283 1.638-1.456 2.562-3.429 2.568-5.488V30.194S11 31.927 11 41.55Zm8.744 2.034c-.453 0-.895-.119-1.272-.343a2.107 2.107 0 0 1-.843-.913 1.825 1.825 0 0 1-.13-1.175c.088-.395.306-.758.626-1.042.32-.285.728-.479 1.172-.557a2.558 2.558 0 0 1 1.323.115c.419.154.776.415 1.028.75s.386.728.386 1.13c.001.268-.057.534-.172.782a2.036 2.036 0 0 1-.496.662c-.212.19-.465.34-.744.443a2.539 2.539 0 0 1-.878.156v-.008Z" fill="#2196F3"/><text fill="#2196F3" xml:space="preserve" style="white-space:pre" font-family="Roboto" font-size="6" font-weight="bold" letter-spacing="0em"><tspan x="34.47" y="43.758">FOSTER PETERS</tspan></text></g><defs><clipPath id="a"><path fill="#fff" transform="translate(-847 -2509)" d="M0 0h1600v2931H0z"/></clipPath></defs></svg>