<svg width="20" height="20" fill="none" xmlns="http://www.w3.org/2000/svg"><path fill="#E5E5E5" d="M0 0h20v20H0z"/><g clip-path="url(#a)"><path fill="#fff" d="M-690-2799H910V132H-690z"/><path fill="#2F303A" d="M-690-120H910v252H-690z"/><path d="M32 10a21.931 21.931 0 0 1-6.444 15.556A21.931 21.931 0 0 1 10 32a21.931 21.931 0 0 1-15.556-6.444A21.931 21.931 0 0 1-12 10 21.931 21.931 0 0 1-5.556-5.556 21.931 21.931 0 0 1 10-12a21.931 21.931 0 0 1 15.556 6.444A21.931 21.931 0 0 1 32 10Z" fill="#fff" fill-opacity=".1"/><g clip-path="url(#b)" fill="#fff"><path d="M19.995 20H20v-7.336c0-3.588-.773-6.352-4.967-6.352-2.017 0-3.37 1.106-3.923 2.156h-.058V6.647H7.074v13.352h4.142v-6.611c0-1.741.33-3.425 2.486-3.425 2.124 0 2.155 1.987 2.155 3.536V20h4.138ZM.33 6.647h4.147V20H.33V6.647ZM2.402 0A2.402 2.402 0 0 0 0 2.402c0 1.325 1.076 2.424 2.402 2.424 1.325 0 2.401-1.098 2.401-2.424A2.403 2.403 0 0 0 2.402 0Z"/></g></g><defs><clipPath id="a"><path fill="#fff" transform="translate(-690 -2799)" d="M0 0h1600v2931H0z"/></clipPath><clipPath id="b"><path fill="#fff" d="M0 0h20v20H0z"/></clipPath></defs></svg>