<svg width="44" height="44" viewBox="0 0 44 44" fill="none" xmlns="http://www.w3.org/2000/svg">
<rect width="44" height="44" fill="#E5E5E5"/>
<g clip-path="url(#clip0_1_293)">
<rect width="1600" height="2931" transform="translate(-247 -2139)" fill="white"/>
<rect x="-247" y="-540" width="1600" height="708" fill="#F5F4FA"/>
<g filter="url(#filter0_ddd_1_293)">
<path d="M-32 -354H238V70C238 72.2091 236.209 74 234 74H-28C-30.2091 74 -32 72.2091 -32 70V-354Z" fill="white"/>
</g>
<path d="M44 21.9999C44 28.0751 41.5376 33.5751 37.5563 37.5563C33.5751 41.5375 28.0751 43.9999 22 43.9999C15.9249 43.9999 10.4249 41.5375 6.44365 37.5563C2.46243 33.5751 0 28.0751 0 21.9999C0 15.9248 2.46243 10.4248 6.44365 6.44359C10.4249 2.46237 15.9249 -6.10352e-05 22 -6.10352e-05C28.0751 -6.10352e-05 33.5751 2.46237 37.5563 6.44359C41.5376 10.4248 44 15.9248 44 21.9999Z" fill="#2196F3"/>
<g clip-path="url(#clip1_1_293)">
<path d="M31.9804 17.8801C31.9336 16.8174 31.7617 16.0868 31.5156 15.4537C31.2616 14.7818 30.8709 14.1801 30.359 13.68C29.8589 13.1721 29.2533 12.7774 28.5891 12.5274C27.9524 12.2813 27.2256 12.1094 26.163 12.0626C25.0924 12.0118 24.7525 12 22.0371 12C19.3217 12 18.9818 12.0118 17.9152 12.0586C16.8525 12.1055 16.1219 12.2775 15.489 12.5235C14.8169 12.7774 14.2153 13.1681 13.7152 13.68C13.2073 14.1801 12.8127 14.7857 12.5626 15.4499C12.3164 16.0868 12.1446 16.8134 12.0977 17.8761C12.0469 18.9467 12.0352 19.2866 12.0352 22.002C12.0352 24.7173 12.0469 25.0572 12.0938 26.1239C12.1406 27.1865 12.3126 27.9171 12.5588 28.5502C12.8127 29.2221 13.2073 29.8238 13.7152 30.3239C14.2153 30.8318 14.8209 31.2265 15.4851 31.4765C16.1219 31.7226 16.8486 31.8945 17.9114 31.9413C18.9779 31.9883 19.3179 31.9999 22.0333 31.9999C24.7487 31.9999 25.0885 31.9883 26.1552 31.9413C27.2179 31.8945 27.9484 31.7226 28.5813 31.4765C29.9254 30.9568 30.9881 29.8941 31.5078 28.5502C31.7538 27.9133 31.9258 27.1865 31.9727 26.1239C32.0195 25.0572 32.0313 24.7173 32.0313 22.002C32.0313 19.2866 32.0273 18.9467 31.9804 17.8801ZM30.1794 26.0457C30.1364 27.0225 29.9723 27.5499 29.8356 27.9015C29.4995 28.7728 28.808 29.4643 27.9367 29.8004C27.5851 29.9372 27.0538 30.1012 26.0809 30.1441C25.026 30.1911 24.7096 30.2027 22.0411 30.2027C19.3726 30.2027 19.0522 30.1911 18.0011 30.1441C17.0244 30.1012 16.4969 29.9372 16.1453 29.8004C15.7117 29.6402 15.317 29.3862 14.9967 29.0541C14.6646 28.7298 14.4106 28.3391 14.2504 27.9055C14.1137 27.5539 13.9496 27.0225 13.9067 26.0497C13.8597 24.9948 13.8481 24.6783 13.8481 22.0097C13.8481 19.3412 13.8597 19.0209 13.9067 17.9699C13.9496 16.9932 14.1137 16.4657 14.2504 16.1141C14.4106 15.6804 14.6646 15.2859 15.0007 14.9654C15.3248 14.6333 15.7155 14.3793 16.1493 14.2192C16.5009 14.0825 17.0323 13.9184 18.0051 13.8754C19.06 13.8285 19.3765 13.8168 22.0449 13.8168C24.7174 13.8168 25.0337 13.8285 26.0848 13.8754C27.0616 13.9184 27.589 14.0825 27.9407 14.2192C28.3742 14.3793 28.7689 14.6333 29.0893 14.9654C29.4213 15.2897 29.6753 15.6804 29.8356 16.1141C29.9723 16.4657 30.1364 16.997 30.1794 17.9699C30.2263 19.0248 30.238 19.3412 30.238 22.0097C30.238 24.6783 30.2263 24.9908 30.1794 26.0457Z" fill="white"/>
<path d="M22.0371 16.8642C19.2007 16.8642 16.8994 19.1654 16.8994 22.0019C16.8994 24.8385 19.2007 27.1396 22.0371 27.1396C24.8737 27.1396 27.1749 24.8385 27.1749 22.0019C27.1749 19.1654 24.8737 16.8642 22.0371 16.8642ZM22.0371 25.3346C20.197 25.3346 18.7044 23.8422 18.7044 22.0019C18.7044 20.1617 20.197 18.6692 22.0371 18.6692C23.8774 18.6692 25.3698 20.1617 25.3698 22.0019C25.3698 23.8422 23.8774 25.3346 22.0371 25.3346V25.3346Z" fill="white"/>
<path d="M28.5775 16.6611C28.5775 17.3235 28.0404 17.8605 27.3779 17.8605C26.7155 17.8605 26.1785 17.3235 26.1785 16.6611C26.1785 15.9986 26.7155 15.4617 27.3779 15.4617C28.0404 15.4617 28.5775 15.9986 28.5775 16.6611V16.6611Z" fill="white"/>
</g>
<path d="M35.3334 45C35.0873 45 34.8565 45.0671 34.6582 45.1839C34.5837 44.5186 34.0179 44 33.3334 44C33.0078 44 32.7087 44.1178 32.4763 44.3141C32.2429 43.9264 31.8181 43.6667 31.3334 43.6667C31.0909 43.6667 30.863 43.7317 30.6667 43.8457V40.3333C30.6667 39.598 30.0687 39 29.3334 39C28.598 39 28 39.598 28 40.3333V49.2546C28 49.4225 27.8893 49.5088 27.8418 49.5381C27.7943 49.5674 27.6663 49.6276 27.5176 49.5527L25.377 48.4824C25.182 48.3848 24.9636 48.3333 24.7455 48.3333C23.9668 48.3333 23.3334 48.9668 23.3334 49.7455V50C23.3334 50.0924 23.3718 50.1807 23.4392 50.2438L27.2865 53.8346C28.0918 54.5859 29.142 55 30.2432 55H32.3333C34.7227 55 36.6667 53.056 36.6667 50.6667V46.3333C36.6667 45.598 36.0687 45 35.3334 45ZM36 50.6667C36 52.6885 34.3552 54.3333 32.3334 54.3333H30.2432C29.3116 54.3333 28.4229 53.9831 27.7416 53.347L24 49.8552V49.7455C24 49.3343 24.3343 49 24.7455 49C24.8604 49 24.9759 49.0273 25.0788 49.0788L27.2194 50.1491C27.5316 50.3057 27.8955 50.2884 28.1924 50.1055C28.4893 49.9219 28.6667 49.6038 28.6667 49.2546V40.3333C28.6667 39.9658 28.9658 39.6667 29.3333 39.6667C29.7008 39.6667 30 39.9658 30 40.3333V45.3333C30 45.5176 30.1491 45.6667 30.3333 45.6667C30.5176 45.6667 30.6667 45.5176 30.6667 45.3333V45C30.6667 44.6325 30.9658 44.3333 31.3333 44.3333C31.7008 44.3333 32 44.6325 32 45V45.3333C32 45.334 32 45.3347 32 45.3353V45.3356C32.0013 45.5186 32.1501 45.6667 32.3333 45.6667C32.5176 45.6667 32.6667 45.5176 32.6667 45.3333V45.3281C32.6693 44.9632 32.9681 44.6667 33.3333 44.6667C33.7008 44.6667 34 44.9658 34 45.3333V46.3333C34 46.5176 34.1491 46.6667 34.3333 46.6667C34.5176 46.6667 34.6667 46.5176 34.6667 46.3333C34.6667 45.9658 34.9658 45.6667 35.3333 45.6667C35.7008 45.6667 36 45.9658 36 46.3333V50.6667Z" fill="black"/>
</g>
<defs>
<filter id="filter0_ddd_1_293" x="-35" y="-356" width="276" height="434" filterUnits="userSpaceOnUse" color-interpolation-filters="sRGB">
<feFlood flood-opacity="0" result="BackgroundImageFix"/>
<feColorMatrix in="SourceAlpha" type="matrix" values="0 0 0 0 0 0 0 0 0 0 0 0 0 0 0 0 0 0 127 0" result="hardAlpha"/>
<feOffset dy="2"/>
<feGaussianBlur stdDeviation="0.5"/>
<feColorMatrix type="matrix" values="0 0 0 0 0 0 0 0 0 0 0 0 0 0 0 0 0 0 0.2 0"/>
<feBlend mode="normal" in2="BackgroundImageFix" result="effect1_dropShadow_1_293"/>
<feColorMatrix in="SourceAlpha" type="matrix" values="0 0 0 0 0 0 0 0 0 0 0 0 0 0 0 0 0 0 127 0" result="hardAlpha"/>
<feOffset dy="1"/>
<feGaussianBlur stdDeviation="0.5"/>
<feColorMatrix type="matrix" values="0 0 0 0 0 0 0 0 0 0 0 0 0 0 0 0 0 0 0.14 0"/>
<feBlend mode="normal" in2="effect1_dropShadow_1_293" result="effect2_dropShadow_1_293"/>
<feColorMatrix in="SourceAlpha" type="matrix" values="0 0 0 0 0 0 0 0 0 0 0 0 0 0 0 0 0 0 127 0" result="hardAlpha"/>
<feOffset dy="1"/>
<feGaussianBlur stdDeviation="1.5"/>
<feColorMatrix type="matrix" values="0 0 0 0 0 0 0 0 0 0 0 0 0 0 0 0 0 0 0.12 0"/>
<feBlend mode="normal" in2="effect2_dropShadow_1_293" result="effect3_dropShadow_1_293"/>
<feBlend mode="normal" in="SourceGraphic" in2="effect3_dropShadow_1_293" result="shape"/>
</filter>
<clipPath id="clip0_1_293">
<rect width="1600" height="2931" fill="white" transform="translate(-247 -2139)"/>
</clipPath>
<clipPath id="clip1_1_293">
<rect width="20" height="20" fill="white" transform="translate(12 12)"/>
</clipPath>
</defs>
</svg>
